<?xml version="1.0" standalone="no"?>
<!DOCTYPE svg PUBLIC "-//W3C//DTD SVG 20010904//EN"
 "http://www.w3.org/TR/2001/REC-SVG-20010904/DTD/svg10.dtd">
<svg version="1.0" xmlns="http://www.w3.org/2000/svg"
 width="414.000000pt" height="414.000000pt" viewBox="0 0 414.000000 414.000000"
 preserveAspectRatio="xMidYMid meet">
<metadata>
Created by potrace 1.14, written by Peter Selinger 2001-2017
</metadata>
<g transform="translate(0.000000,414.000000) scale(0.100000,-0.100000)"
fill="#000000" stroke="none">
<path d="M1930 4078 c-47 -28 -101 -60 -120 -70 -19 -11 -197 -114 -395 -228
-198 -114 -378 -218 -400 -230 -22 -13 -53 -31 -70 -41 -16 -10 -46 -26 -65
-37 -19 -11 -107 -61 -195 -112 -88 -51 -180 -105 -205 -119 -25 -14 -53 -31
-62 -36 -15 -9 -17 -60 -23 -495 -3 -267 -8 -588 -10 -715 -6 -328 -8 -636 -4
-639 2 -1 137 -76 299 -166 162 -90 309 -171 325 -180 17 -9 134 -75 260 -145
127 -71 262 -146 300 -168 39 -21 99 -55 135 -75 36 -20 107 -59 158 -88 51
-29 101 -56 112 -59 13 -4 70 24 187 91 188 108 336 194 402 232 25 13 68 38
95 55 28 16 67 39 86 50 19 10 128 73 242 138 113 66 209 119 213 119 3 0 21
10 38 23 18 13 110 68 205 122 l172 98 1 146 c0 80 2 245 4 366 2 121 4 291 5
377 2 87 7 155 11 152 5 -3 9 34 10 83 0 48 2 120 4 158 2 39 0 75 -3 80 -4 6
-7 116 -7 245 0 224 -1 235 -20 245 -29 15 -233 128 -360 200 -60 34 -135 76
-165 92 -47 26 -224 125 -355 198 -22 12 -137 76 -255 142 -199 111 -278 155
-370 206 -19 10 -39 23 -44 28 -19 17 -52 7 -136 -43z"/>
<path d="M1013 643 c43 -2 110 -2 150 0 40 1 5 3 -78 3 -82 0 -115 -2 -72 -3z"/>
</g>
</svg>
